HIERARCHY
ROOT Hips
{
  OFFSET 5.84602e-005 68.8428 3.50346
  CHANNELS 6 Xposition Yposition Zposition Zrotation Xrotation Yrotation
  JOINT Spine
  {
    OFFSET 0 8.597 -4.6522
    CHANNELS 3 Zrotation Xrotation Yrotation
    JOINT Spine1
    {
      OFFSET 0 7.8454 0.4098
      CHANNELS 3 Zrotation Xrotation Yrotation
      JOINT Spine2
      {
        OFFSET 0 9.7078 -2.1609
        CHANNELS 3 Zrotation Xrotation Yrotation
        JOINT Neck
        {
          OFFSET 0 21.8761 -0.4549
          CHANNELS 3 Zrotation Xrotation Yrotation
          JOINT Head
          {
            OFFSET 0 12.3537 3.3602
            CHANNELS 3 Zrotation Xrotation Yrotation
            End Site
            {
              OFFSET 0.0001 18.9506 0.5657
            }
          }
        }
        JOINT LeftShoulder
        {
          OFFSET 2.2086 21.1115 7.2329
          CHANNELS 3 Zrotation Xrotation Yrotation
          JOINT LeftArm
          {
            OFFSET 13.1193 3.0282 -4.8998
            CHANNELS 3 Zrotation Xrotation Yrotation
            JOINT LeftForeArm
            {
              OFFSET 27.4081 -0.0973053 -0.2375
              CHANNELS 3 Zrotation Xrotation Yrotation
              JOINT LeftHand
              {
                OFFSET 22.8641 0.0662994 -0.1369
                CHANNELS 3 Zrotation Xrotation Yrotation
                JOINT LeftHandIndex1
                {
                  OFFSET 8.8614 0.775009 2.4612
                  CHANNELS 3 Zrotation Xrotation Yrotation
                  JOINT LeftHandIndex2
                  {
                    OFFSET 3.3146 -0.808304 0.5841
                    CHANNELS 3 Zrotation Xrotation Yrotation
                    JOINT LeftHandIndex3
                    {
                      OFFSET 2.2628 -0.552002 0.3989
                      CHANNELS 3 Zrotation Xrotation Yrotation
                      End Site
                      {
                        OFFSET 1.6102 -0.4807 0.2612
                      }
                    }
                  }
                }
                JOINT LeftHandMiddle1
                {
                  OFFSET 8.9937 0.895004 0.2143
                  CHANNELS 3 Zrotation Xrotation Yrotation
                  JOINT LeftHandMiddle2
                  {
                    OFFSET 4.0984 0.0113983 -0.0242
                    CHANNELS 3 Zrotation Xrotation Yrotation
                    JOINT LeftHandMiddle3
                    {
                      OFFSET 2.2716 0.00689697 -0.0138001
                      CHANNELS 3 Zrotation Xrotation Yrotation
                      End Site
                      {
                        OFFSET 2.0404 -0.1441 0.0027
                      }
                    }
                  }
                }
                JOINT LeftHandRing1
                {
                  OFFSET 8.5234 0.597198 -2.0164
                  CHANNELS 3 Zrotation Xrotation Yrotation
                  JOINT LeftHandRing2
                  {
                    OFFSET 3.7188 -0.188293 -0.2328
                    CHANNELS 3 Zrotation Xrotation Yrotation
                    JOINT LeftHandRing3
                    {
                      OFFSET 2.1191 -0.106598 -0.1332
                      CHANNELS 3 Zrotation Xrotation Yrotation
                      End Site
                      {
                        OFFSET 1.8737 -0.2304 -0.0886
                      }
                    }
                  }
                }
                JOINT LeftHandPinky1
                {
                  OFFSET 7.9094 -0.601089 -3.4825
                  CHANNELS 3 Zrotation Xrotation Yrotation
                  JOINT LeftHandPinky2
                  {
                    OFFSET 2.2874 -0.477005 -0.6314
                    CHANNELS 3 Zrotation Xrotation Yrotation
                    JOINT LeftHandPinky3
                    {
                      OFFSET 1.6774 -0.349396 -0.4633
                      CHANNELS 3 Zrotation Xrotation Yrotation
                      End Site
                      {
                        OFFSET 1.4888 -0.4091 -0.3416
                      }
                    }
                  }
                }
                JOINT LeftHandThumb1
                {
                  OFFSET 1.833 -1.3875 1.3896
                  CHANNELS 3 Zrotation Xrotation Yrotation
                  JOINT LeftHandThumb2
                  {
                    OFFSET 3.4129 -1.121 2.5732
                    CHANNELS 3 Zrotation Xrotation Yrotation
                    JOINT LeftHandThumb3
                    {
                      OFFSET 2.2474 -0.804199 1.6192
                      CHANNELS 3 Zrotation Xrotation Yrotation
                      End Site
                      {
                        OFFSET 1.6527 -0.5689 1.1317
                      }
                    }
                  }
                }
              }
            }
          }
        }
        JOINT RightShoulder
        {
          OFFSET -2.2086 21.1115 7.2329
          CHANNELS 3 Zrotation Xrotation Yrotation
          JOINT RightArm
          {
            OFFSET -13.1216 3.0287 -4.9007
            CHANNELS 3 Zrotation Xrotation Yrotation
            JOINT RightForeArm
            {
              OFFSET -27.4081 -0.0973053 -0.2375
              CHANNELS 3 Zrotation Xrotation Yrotation
              JOINT RightHand
              {
                OFFSET -22.8641 0.0664063 -0.1369
                CHANNELS 3 Zrotation Xrotation Yrotation
                JOINT RightHandIndex1
                {
                  OFFSET -8.8614 0.774994 2.4612
                  CHANNELS 3 Zrotation Xrotation Yrotation
                  JOINT RightHandIndex2
                  {
                    OFFSET -3.3146 -0.808304 0.5841
                    CHANNELS 3 Zrotation Xrotation Yrotation
                    JOINT RightHandIndex3
                    {
                      OFFSET -2.2628 -0.552002 0.3989
                      CHANNELS 3 Zrotation Xrotation Yrotation
                      End Site
                      {
                        OFFSET -1.6102 -0.4807 0.2612
                      }
                    }
                  }
                }
                JOINT RightHandMiddle1
                {
                  OFFSET -8.9937 0.894989 0.2143
                  CHANNELS 3 Zrotation Xrotation Yrotation
                  JOINT RightHandMiddle2
                  {
                    OFFSET -4.0984 0.0113983 -0.0242
                    CHANNELS 3 Zrotation Xrotation Yrotation
                    JOINT RightHandMiddle3
                    {
                      OFFSET -2.2716 0.00691223 -0.0138001
                      CHANNELS 3 Zrotation Xrotation Yrotation
                      End Site
                      {
                        OFFSET -2.0404 -0.1441 0.0027
                      }
                    }
                  }
                }
                JOINT RightHandRing1
                {
                  OFFSET -8.5234 0.597198 -2.0164
                  CHANNELS 3 Zrotation Xrotation Yrotation
                  JOINT RightHandRing2
                  {
                    OFFSET -3.7188 -0.188309 -0.2328
                    CHANNELS 3 Zrotation Xrotation Yrotation
                    JOINT RightHandRing3
                    {
                      OFFSET -2.1191 -0.106598 -0.1332
                      CHANNELS 3 Zrotation Xrotation Yrotation
                      End Site
                      {
                        OFFSET -1.8737 -0.2304 -0.0886
                      }
                    }
                  }
                }
                JOINT RightHandPinky1
                {
                  OFFSET -7.9094 -0.601105 -3.4825
                  CHANNELS 3 Zrotation Xrotation Yrotation
                  JOINT RightHandPinky2
                  {
                    OFFSET -2.2874 -0.477005 -0.6314
                    CHANNELS 3 Zrotation Xrotation Yrotation
                    JOINT RightHandPinky3
                    {
                      OFFSET -1.6774 -0.349396 -0.4633
                      CHANNELS 3 Zrotation Xrotation Yrotation
                      End Site
                      {
                        OFFSET -1.4888 -0.4091 -0.3416
                      }
                    }
                  }
                }
                JOINT RightHandThumb1
                {
                  OFFSET -1.833 -1.38751 1.3896
                  CHANNELS 3 Zrotation Xrotation Yrotation
                  JOINT RightHandThumb2
                  {
                    OFFSET -3.41299 -1.12099 2.5732
                    CHANNELS 3 Zrotation Xrotation Yrotation
                    JOINT RightHandThumb3
                    {
                      OFFSET -2.24741 -0.804108 1.6192
                      CHANNELS 3 Zrotation Xrotation Yrotation
                      End Site
                      {
                        OFFSET -1.6527 -0.5689 1.1317
                      }
                    }
                  }
                }
              }
            }
          }
        }
      }
    }
  }
  JOINT RightUpLeg
  {
    OFFSET -9.1966 3.8861 -0.7581
    CHANNELS 3 Zrotation Xrotation Yrotation
    JOINT RightLeg
    {
      OFFSET -0.7359 -41.0265 0
      CHANNELS 3 Zrotation Xrotation Yrotation
      JOINT RightFoot
      {
        OFFSET 0 -40.2855 0
        CHANNELS 3 Zrotation Xrotation Yrotation
        JOINT RightToeBase
        {
          OFFSET 0 -5.6122 11.7359
          CHANNELS 3 Zrotation Xrotation Yrotation
          End Site
          {
            OFFSET 0 0 7.8731
          }
        }
      }
    }
  }
  JOINT LeftUpLeg
  {
    OFFSET 9.1965 3.8864 -0.7581
    CHANNELS 3 Zrotation Xrotation Yrotation
    JOINT LeftLeg
    {
      OFFSET 0.7359 -41.0268 0
      CHANNELS 3 Zrotation Xrotation Yrotation
      JOINT LeftFoot
      {
        OFFSET 0 -40.2855 0
        CHANNELS 3 Zrotation Xrotation Yrotation
        JOINT LeftToeBase
        {
          OFFSET 0 -5.6122 11.7359
          CHANNELS 3 Zrotation Xrotation Yrotation
          End Site
          {
            OFFSET 0 0 7.8731
          }
        }
      }
    }
  }
}
MOTION
Frames:	4
Frame Time:	0.0333333
5.84602e-005 68.8428 3.50346 0 0 -0 0 0 -0 0 0 -0 0 0 -0 0 0 -0 0 0 -0 0 0 -0 0 0 -0 0 0 -0 0 0 -0 0 0 -0 0 0 -0 0 0 -0 0 0 -0 -0.0146107 -8.87603e-005 -2.63497e-007 2.99804e-018 -2.42657e-020 -1.42182e-022 0 0 -0 -0.0187562 -0.001176 5.858e-005 5.06224e-018 3.88251e-019 1.21329e-020 0 0 -0 -0.012269 -0.00324817 0.000675346 -1.74678e-018 3.88251e-019 -0 0 0 -0 0 0 -0 0 0 -0 0 0 -0 0 0 -0 0 0 -0 0 0 -0 0 0 -0 0 0 -0 0 0 -0 0 0 -0 0.0149955 -9.10982e-005 2.64101e-007 -9.69331e-018 1.21329e-020 -4.7394e-023 0 0 -0 0.0189956 -0.00119102 -5.96516e-005 -5.41541e-019 0 2.42657e-020 0 0 -0 0.0122698 -0.00324857 -0.000673756 -2.00796e-019 0 -1.94126e-019 0 0 -0 0 0 -0 0 0 -0 3.39842 1.33031 -0.0637918 -5.65207e-008 0.834868 -0.000436188 -3.39935 -2.16518 -0.0642563 -8.89002e-024 -1.18485e-023 -1.48106e-024 -3.39844 1.35642 0.0640283 -3.18788e-007 0.782166 -0.000588827 3.39931 -2.13858 0.0634662 1.1399e-023 0 -0 
-9.62499 39.6603 49.7271 0 52.8197 -0 -0.272239 2.92783 -0.109531 -0.539927 5.85615 -0.205512 -0.539926 5.85615 -0.205512 0.278483 -18.1289 0.115588 0.162963 -16.4973 0.0613825 -8.76799 -0.0537005 -6.95054 -52.3558 -17.9731 -50.797 25.7799 30.9855 -35.7068 29.5904 5.36503 -0.0752429 0 1.59028e-015 -0 -1.76556e-031 -3.18055e-015 -3.18055e-015 3.18055e-015 1.59028e-015 -0 0 1.59028e-015 -0 -0.0146007 -9.07352e-005 3.31533e-007 -3.18055e-015 3.18055e-015 -6.36111e-015 0 1.59028e-015 -0 -0.0186964 -0.00117136 6.07386e-005 1.76556e-031 -3.18055e-015 3.18055e-015 0 1.59028e-015 -0 -0.012207 -0.0032353 0.000677809 3.53113e-031 -3.18055e-015 6.36111e-015 0 1.59028e-015 -0 -1.76556e-031 -3.18055e-015 -3.18055e-015 3.18055e-015 1.59028e-015 -0 7.97509 0.280573 8.81476 50.6133 -19.0977 48.9926 -27.5764 26.5699 30.6573 -25.8983 5.37644 0.067023 3.18055e-015 -6.36111e-015 3.18055e-015 1.62041e-006 5.80515e-007 -6.02346e-007 -4.17275e-007 -1.52191e-006 -2.44128e-006 3.18055e-015 -6.36111e-015 3.18055e-015 0.0149287 -9.14434e-005 3.36913e-007 -4.15978e-007 -1.52224e-006 -2.44109e-006 3.18055e-015 -6.36111e-015 3.18055e-015 0.0189603 -0.00118775 -5.67643e-005 -4.1565e-007 -1.52242e-006 -2.44103e-006 3.18055e-015 -6.36111e-015 3.18055e-015 0.0123208 -0.00326399 -0.000676493 3.18055e-015 -3.18055e-015 3.18055e-015 3.18055e-015 -6.36111e-015 3.18055e-015 1.62041e-006 5.80515e-007 -6.02346e-007 -4.17275e-007 -1.52191e-006 -2.44128e-006 -49.3461 -65.4754 -36.359 105.901 85.512 -111.952 -16.4827 4.77047 3.0904 7.96484e-007 3.26373e-007 -9.45734e-007 50.019 -65.3727 37.4654 -105.759 85.4587 111.837 17.0728 4.72501 -3.31905 5.30849e-007 -2.17911e-007 -6.30468e-007 
-13.9575 28.5164 71.0881 0 76.5886 -0 -0.434853 4.29201 -0.131927 -0.863414 8.58488 -0.232058 -0.863414 8.58488 -0.232058 0.428869 -25.8954 0.174491 0.249691 -24.339 0.0952188 -12.6411 -0.228743 -10.1293 -83.3192 -13.2359 -73.357 50.2648 35.327 -57.5899 42.971 7.70718 -0.062527 2.07765e-006 2.62174e-007 1.21453e-007 -1.76556e-031 1.59028e-015 6.36111e-015 3.18055e-015 3.18055e-015 6.36111e-015 2.07765e-006 2.62174e-007 1.21453e-007 -0.0146531 -8.9757e-005 1.18319e-006 1.27222e-014 -1.59028e-015 -3.18055e-015 2.07765e-006 2.62174e-007 1.21453e-007 -0.0187707 -0.00117911 5.55425e-005 -3.18055e-015 -4.77083e-015 -3.18055e-015 2.07765e-006 2.62174e-007 1.21453e-007 -0.0122773 -0.00324964 0.000680175 -1.27222e-014 -3.18055e-015 -0 2.07765e-006 2.62174e-007 1.21453e-007 -1.76556e-031 1.59028e-015 6.36111e-015 3.18055e-015 3.18055e-015 6.36111e-015 11.4578 0.26162 12.8427 81.2844 -15.2916 71.2184 -49.7065 32.3298 48.6123 -37.6158 7.71118 0.0461611 -7.35875e-007 -1.4673e-006 3.02113e-007 7.35875e-007 1.4673e-006 -3.02113e-007 -7.35875e-007 -1.4673e-006 3.02113e-007 -7.35875e-007 -1.4673e-006 3.02113e-007 0.014991 -9.36211e-005 -5.6959e-006 -7.35827e-007 -1.46726e-006 3.02305e-007 -7.35875e-007 -1.4673e-006 3.02113e-007 0.0189376 -0.00118591 -5.91917e-005 -2.47543e-006 -6.2512e-007 -1.07778e-007 -7.35875e-007 -1.4673e-006 3.02113e-007 0.0123028 -0.00325611 -0.000678882 -2.47593e-006 -6.25284e-007 -1.07816e-007 -7.35875e-007 -1.4673e-006 3.02113e-007 7.35875e-007 1.4673e-006 -3.02113e-007 -7.35875e-007 -1.4673e-006 3.02113e-007 -143.529 -68.8914 -119.268 167.656 49.2706 -175.533 -22.1511 8.21887 3.39276 -3.18055e-015 -1.59028e-015 3.18055e-015 142.805 -68.2053 118.96 -167.537 49.2487 175.411 23.0288 8.17252 -3.73445 -6.36111e-015 -3.18055e-015 -3.18055e-015 
-12.9947 30.9026 66.268 0 71.3066 -0 -0.397843 4.09311 -0.13127 -0.78929 8.18699 -0.234861 -0.78929 8.18698 -0.234861 0.391281 -23.298 0.153904 0.231173 -23.525 0.0912854 -11.6048 -0.527417 -9.53611 -76.5273 -15.1214 -68.726 44.4174 35.1571 -52.6427 40.1331 7.02646 0.0391948 -3.09789e-007 -4.98551e-008 2.55584e-006 4.41969e-007 1.74982e-006 -5.48971e-006 1.79472e-006 -1.33242e-006 2.8141e-006 -3.09789e-007 -4.98551e-008 2.55584e-006 -0.0146619 -8.89416e-005 1.61668e-006 1.65143e-006 -1.94649e-006 3.17645e-006 -3.09789e-007 -4.98551e-008 2.55584e-006 -0.0187794 -0.00117234 5.77027e-005 1.7944e-006 -1.33291e-006 2.81386e-006 -3.09789e-007 -4.98551e-008 2.55584e-006 -0.0122042 -0.00323303 0.000673549 1.65121e-006 -1.94605e-006 3.17637e-006 -3.09789e-007 -4.98551e-008 2.55584e-006 4.41969e-007 1.74982e-006 -5.48971e-006 1.79472e-006 -1.33242e-006 2.8141e-006 10.5063 -0.0457622 12.0836 74.5146 -16.9605 66.6313 -44.3743 31.5782 44.4537 -35.1451 7.00424 -0.0635258 -9.23105e-007 5.06993e-007 -6.13874e-007 -3.53113e-031 6.36111e-015 3.18055e-015 9.23105e-007 -5.06993e-007 6.13874e-007 -9.23105e-007 5.06993e-007 -6.13874e-007 0.0150312 -8.95218e-005 -1.5543e-006 -1.76556e-031 3.18055e-015 3.18055e-015 -9.23105e-007 5.06993e-007 -6.13874e-007 0.0189679 -0.00119196 -6.07999e-005 9.2571e-007 -5.07054e-007 6.1394e-007 -9.23105e-007 5.06993e-007 -6.13874e-007 0.0123601 -0.00327047 -0.000670178 -3.18055e-015 -1.90833e-014 -3.18055e-015 -9.23105e-007 5.06993e-007 -6.13874e-007 -3.53113e-031 6.36111e-015 3.18055e-015 9.23105e-007 -5.06993e-007 6.13874e-007 -123.677 -71.8032 -101.902 166.05 57.7609 -173.435 -20.9977 7.48231 3.51744 4.45748e-007 -5.06922e-007 3.7018e-006 123.554 -71.1677 102.213 -165.911 57.7387 173.303 21.8098 7.43329 -3.83231 -6.47001e-007 1.74594e-006 1.13189e-007 
